<svg xmlns="http://www.w3.org/2000/svg" width="32" height="24" viewBox="0 0 32 24">
    <g>
        <g>
            <path fill="#fff"
                  d="M32 3.862v16.28C32 22.27 30.244 24 28.085 24H3.913C1.754 24 0 22.27 0 20.143V3.856C0 1.728 1.754-.001 3.913-.001h24.18c2.158 0 3.913 1.736 3.906 3.863zm-1.788 16.28V3.863c0-1.155-.954-2.094-2.126-2.094H3.913c-1.172 0-2.126.94-2.126 2.094v16.28c0 1.155.954 2.095 2.126 2.095h24.18c1.172 0 2.125-.94 2.125-2.094zm-2.172-.99c.358.332.37.893.033 1.245a.899.899 0 0 1-.649.274.895.895 0 0 1-.615-.241l-7.959-7.452-2.231 1.97a.903.903 0 0 1-1.192.007l-2.172-1.912-8.005 7.38a.902.902 0 0 1-1.264-.046.875.875 0 0 1 .04-1.246l7.885-7.275L3.992 4.88a.871.871 0 0 1-.073-1.246.902.902 0 0 1 1.265-.072l8.568 7.556c.053.04.1.078.145.124 0 .006.007.013.014.02l2.105 1.853L26.81 3.568a.908.908 0 0 1 1.264.066.876.876 0 0 1-.066 1.246l-7.826 6.917z"/>
        </g>
    </g>
</svg>